<?xml version="1.0" standalone="no"?>
<!DOCTYPE svg PUBLIC "-//W3C//DTD SVG 20010904//EN"
 "http://www.w3.org/TR/2001/REC-SVG-20010904/DTD/svg10.dtd">
<svg version="1.0" xmlns="http://www.w3.org/2000/svg"
 width="700.000000pt" height="700.000000pt" viewBox="0 0 700.000000 700.000000"
 preserveAspectRatio="xMidYMid meet">
<metadata>
Created by potrace 1.14, written by Peter Selinger 2001-2017
</metadata>
<g transform="translate(0.000000,700.000000) scale(0.100000,-0.100000)"
fill="#000000" stroke="none">
<path d="M3419 6928 c-95 -80 -333 -318 -424 -423 -377 -435 -625 -878 -738
-1315 -14 -52 -28 -113 -31 -135 -4 -22 -12 -69 -18 -105 -20 -105 -14 -565 7
-599 2 -4 6 -22 9 -41 13 -77 28 -137 63 -245 119 -370 361 -733 712 -1069 29
-28 68 -65 86 -82 59 -56 154 -133 198 -158 92 -54 207 -75 299 -55 56 13 172
72 217 111 139 120 321 296 391 378 12 14 32 36 44 50 109 124 264 348 338
490 42 82 108 224 113 245 1 6 5 17 8 25 35 86 89 302 102 405 3 28 8 66 11
85 6 49 6 327 -1 370 -2 19 -7 58 -10 85 -7 62 -40 221 -61 295 -145 511 -464
1020 -939 1495 -95 95 -225 214 -276 252 -12 10 -30 0 -100 -59z"/>
<path d="M585 3350 l-50 -5 1 -145 c0 -131 8 -262 18 -315 2 -11 7 -45 12 -75
4 -30 8 -57 9 -60 1 -3 5 -25 9 -50 13 -73 53 -229 82 -315 154 -464 426 -793
814 -986 54 -27 105 -49 112 -49 8 0 18 -4 23 -8 12 -11 125 -45 230 -71 73
-18 116 -25 215 -37 143 -17 334 -19 391 -4 165 44 313 198 357 370 12 49 3
242 -19 378 -39 248 -148 507 -284 671 -64 78 -127 142 -214 219 -60 54 -242
167 -355 222 -175 86 -465 178 -638 204 -65 10 -110 17 -132 22 -11 3 -48 7
-81 10 -33 3 -66 8 -74 10 -8 3 -91 7 -185 10 -94 3 -175 6 -181 8 -5 1 -32
-1 -60 -4z"/>
<path d="M6167 3344 c-1 -1 -47 -5 -102 -8 -55 -3 -109 -8 -121 -10 -11 -2
-47 -7 -79 -10 -32 -4 -61 -8 -64 -10 -3 -2 -28 -7 -56 -11 -136 -18 -347 -75
-517 -139 -378 -144 -654 -363 -834 -661 -130 -214 -206 -506 -206 -791 -1
-118 15 -174 71 -261 72 -111 200 -201 318 -223 69 -12 304 -4 413 15 14 3 43
8 65 11 172 25 409 109 575 206 120 69 311 236 395 344 103 132 218 332 264
459 73 199 124 388 146 545 3 25 8 59 11 75 19 131 31 464 15 467 -17 2 -291
5 -294 2z"/>
<path d="M3270 1179 l0 -1179 230 0 230 0 0 1179 0 1180 -230 -1 -230 0 0
-1179z"/>
</g>
</svg>
