<?xml version="1.0" encoding="utf-8"?>
<!-- Generator: Adobe Illustrator 27.8.1, SVG Export Plug-In . SVG Version: 6.00 Build 0)  -->
<svg version="1.1" id="Layer_1" xmlns="http://www.w3.org/2000/svg" xmlns:xlink="http://www.w3.org/1999/xlink" x="0px" y="0px"
	 viewBox="0 0 2000 2000" style="enable-background:new 0 0 2000 2000;" xml:space="preserve">
<style type="text/css">
	.st0{fill:#CFF4FF;}
	.st1{fill:#512820;}
	.st2{fill:#74BAAD;}
	.st3{fill:#99DACD;}
	.st4{clip-path:url(#SVGID_00000052074115989219635810000014551624036691409046_);fill:#F7CE65;}
	.st5{clip-path:url(#SVGID_00000052074115989219635810000014551624036691409046_);fill:#80453F;}
	
		.st6{clip-path:url(#SVGID_00000052074115989219635810000014551624036691409046_);fill:none;stroke:#80453F;stroke-width:35.9506;stroke-linecap:round;stroke-linejoin:round;stroke-miterlimit:10;}
	.st7{clip-path:url(#SVGID_00000052074115989219635810000014551624036691409046_);fill:#512820;}
</style>
<rect class="st0" width="2000" height="2000"/>
<g>
	<path class="st1" d="M1503.2,1080.6v156.7l210.3-56c22.9-6.1,22.9-38.6,0-44.7L1503.2,1080.6z"/>
	
		<ellipse transform="matrix(0.8439 -0.5364 0.5364 0.8439 -246.2236 541.8814)" class="st2" cx="808.2" cy="694.1" rx="337.1" ry="382.9"/>
	
		<ellipse transform="matrix(0.2789 -0.9603 0.9603 0.2789 156.4694 1596.611)" class="st3" cx="1141.4" cy="694.1" rx="382.9" ry="337.1"/>
	<g>
		<defs>
			<ellipse id="SVGID_1_" cx="969.8" cy="1148.4" rx="647" ry="537.1"/>
		</defs>
		<clipPath id="SVGID_00000041268759066424687480000001772833394245956012_">
			<use xlink:href="#SVGID_1_"  style="overflow:visible;"/>
		</clipPath>
		
			<ellipse style="clip-path:url(#SVGID_00000041268759066424687480000001772833394245956012_);fill:#F7CE65;" cx="969.8" cy="1148.4" rx="647" ry="537.1"/>
		
			<circle style="clip-path:url(#SVGID_00000041268759066424687480000001772833394245956012_);fill:#80453F;" cx="746.8" cy="1134.5" r="54.1"/>
		
			<circle style="clip-path:url(#SVGID_00000041268759066424687480000001772833394245956012_);fill:#80453F;" cx="429.1" cy="1134.5" r="54.1"/>
		
			<path style="clip-path:url(#SVGID_00000041268759066424687480000001772833394245956012_);fill:none;stroke:#80453F;stroke-width:35.9506;stroke-linecap:round;stroke-linejoin:round;stroke-miterlimit:10;" d="
			M522.8,1188.6c0,0,53.5,62.5,124.9,0"/>
		<path style="clip-path:url(#SVGID_00000041268759066424687480000001772833394245956012_);fill:#512820;" d="M696.4,503
			c0,0,471.1,601.9,0,1371.6h311.9c0,0,381.8-787.9-34.8-1394.7L696.4,503z"/>
		<path style="clip-path:url(#SVGID_00000041268759066424687480000001772833394245956012_);fill:#512820;" d="M1177.6,503
			c0,0,559.7,594.1,0,1371.6h395.6c0,0,353-787.9-63.7-1394.7L1177.6,503z"/>
	</g>
</g>
</svg>
