<?xml version="1.0" encoding="utf-8"?>
<!-- Generator: Adobe Illustrator 27.8.1, SVG Export Plug-In . SVG Version: 6.00 Build 0)  -->
<svg version="1.1" id="Layer_1" xmlns="http://www.w3.org/2000/svg" xmlns:xlink="http://www.w3.org/1999/xlink" x="0px" y="0px"
	 viewBox="0 0 2000 2000" style="enable-background:new 0 0 2000 2000;" xml:space="preserve">
<style type="text/css">
	.st0{fill:#87BA82;}
	.st1{fill:#EBEBEB;}
	.st2{fill:#F2BBAC;}
	.st3{fill:#80453F;}
	.st4{fill:none;stroke:#80453F;stroke-width:32.5156;stroke-linecap:round;stroke-linejoin:round;stroke-miterlimit:10;}
	.st5{fill:none;}
	.st6{fill:none;stroke:#D8B1AF;stroke-width:21.7819;stroke-linecap:round;stroke-linejoin:round;stroke-miterlimit:10;}
</style>
<rect class="st0" width="2000" height="2000"/>
<g>
	<path class="st1" d="M847.3,932.4L847.3,932.4c-105.3,25.9-211.6-38.5-237.5-143.8l-57.5-234C526.5,449.3,590.9,343,696.2,317.1
		l0,0c105.3-25.9,211.6,38.5,237.5,143.8l57.5,234C1017,800.2,952.6,906.5,847.3,932.4z"/>
	<path class="st1" d="M1136.6,929L1136.6,929c-104.1-30.2-164-139.2-133.8-243.3l67.2-231.4c30.2-104.1,139.2-164,243.3-133.8l0,0
		c104.1,30.2,164,139.2,133.8,243.3l-67.2,231.4C1349.6,899.3,1240.7,959.2,1136.6,929z"/>
	<path class="st2" d="M1154.7,866.7L1154.7,866.7c-67.9-19.7-107-90.8-87.3-158.7l56.8-195.7c19.7-67.9,90.8-107,158.7-87.3l0,0
		c67.9,19.7,107,90.8,87.3,158.7l-56.8,195.7C1293.7,847.4,1222.6,886.4,1154.7,866.7z"/>
	<path class="st2" d="M845,866.7L845,866.7c67.9-19.7,107-90.8,87.3-158.7l-56.8-195.7c-19.7-67.9-90.8-107-158.7-87.3l0,0
		c-67.9,19.7-107,90.8-87.3,158.7l56.8,195.7C706,847.4,777,886.4,845,866.7z"/>
	<path class="st1" d="M1583.1,1209c52.6,260.9-260.2,479.6-581.2,479.6S350,1466.7,420.7,1209c81.3-296.2,260.2-479.6,581.2-479.6
		S1526.2,926.9,1583.1,1209z"/>
	<circle class="st3" cx="1210.3" cy="1263.8" r="54.8"/>
	<circle class="st3" cx="809.3" cy="1263.8" r="54.8"/>
	<line class="st4" x1="1011.5" y1="1281.1" x2="1011.5" y2="1433.4"/>
	<path class="st3" d="M945.6,1246.4h131.9c20,0,29.8,24.3,15.5,38.2l-65.9,63.9c-8.6,8.3-22.3,8.3-30.9,0l-65.9-63.9
		C915.8,1270.7,925.6,1246.4,945.6,1246.4z"/>
	<path class="st4" d="M911,1398.5c0,0,93.2,81.3,209.1,0"/>
	<path class="st5" d="M1583.1,1209c52.6,260.9-260.2,479.6-581.2,479.6S350,1466.7,420.7,1209c81.3-296.2,260.2-479.6,581.2-479.6
		S1526.2,926.9,1583.1,1209z"/>
	<line class="st6" x1="592.6" y1="1354" x2="667.2" y2="1383.3"/>
	<line class="st6" x1="592.8" y1="1452.1" x2="666.9" y2="1421.6"/>
	<line class="st6" x1="1406.8" y1="1354" x2="1332.2" y2="1383.3"/>
	<line class="st6" x1="1406.6" y1="1452.1" x2="1332.4" y2="1421.6"/>
</g>
</svg>
