<?xml version="1.0" encoding="utf-8"?>
<!-- Generator: Adobe Illustrator 27.8.1, SVG Export Plug-In . SVG Version: 6.00 Build 0)  -->
<svg version="1.1" id="Layer_1" xmlns="http://www.w3.org/2000/svg" xmlns:xlink="http://www.w3.org/1999/xlink" x="0px" y="0px"
	 viewBox="0 0 2000 2000" style="enable-background:new 0 0 2000 2000;" xml:space="preserve">
<style type="text/css">
	.st0{fill:#BFE9FA;}
	.st1{fill:#F4AA35;}
	.st2{fill:#FBC6BA;}
	.st3{clip-path:url(#SVGID_00000072275324959836357070000004823680821971889083_);fill:#F4AA35;}
	.st4{clip-path:url(#SVGID_00000072275324959836357070000004823680821971889083_);fill:#E76605;}
	.st5{clip-path:url(#SVGID_00000072275324959836357070000004823680821971889083_);fill:#80453F;}
	
		.st6{clip-path:url(#SVGID_00000072275324959836357070000004823680821971889083_);fill:none;stroke:#80453F;stroke-width:36.9676;stroke-linecap:round;stroke-linejoin:round;stroke-miterlimit:10;}
</style>
<rect class="st0" width="2000" height="2000"/>
<g>
	<path class="st1" d="M1027.7,768.7L728.3,369.8c-49.3-65.7-157.6-46.7-178.5,31.4l-194.7,727.2L1027.7,768.7z"/>
	<path class="st1" d="M967.4,768.7l299.4-398.9c49.3-65.7,157.6-46.7,178.5,31.4l194.7,727.2L967.4,768.7z"/>
	<path class="st2" d="M740.5,633.9L608.7,734.3c-20.3,15.5-48.4-4.4-40.7-28.7l68.1-213.9c5.9-18.6,30.9-21.7,41.2-5.1l69.6,112.7
		C754,610.8,751.2,625.7,740.5,633.9z"/>
	<path class="st2" d="M1259,633.9l131.8,100.4c20.3,15.5,48.4-4.4,40.7-28.7l-68.1-213.9c-5.9-18.6-30.9-21.7-41.2-5.1l-69.6,112.7
		C1245.6,610.8,1248.4,625.7,1259,633.9z"/>
	<g>
		<defs>
			<path id="SVGID_1_" d="M1663,1124.8c59.8,296.6-295.8,545.3-660.8,545.3S261,1417.7,341.4,1124.8
				c92.4-336.8,295.8-545.3,660.8-545.3S1598.3,804,1663,1124.8z"/>
		</defs>
		<clipPath id="SVGID_00000124844787048799727830000012449275777346698148_">
			<use xlink:href="#SVGID_1_"  style="overflow:visible;"/>
		</clipPath>
		<path style="clip-path:url(#SVGID_00000124844787048799727830000012449275777346698148_);fill:#F4AA35;" d="M1663,1124.8
			c59.8,296.6-295.8,545.3-660.8,545.3S261,1417.7,341.4,1124.8c92.4-336.8,295.8-545.3,660.8-545.3S1598.3,804,1663,1124.8z"/>
		<path style="clip-path:url(#SVGID_00000124844787048799727830000012449275777346698148_);fill:#E76605;" d="M875.7,557.3
			l91.2,226.9c10.6,26.5,48.1,26.4,58.7-0.1l90.4-226.8H875.7z"/>
		<path style="clip-path:url(#SVGID_00000124844787048799727830000012449275777346698148_);fill:#E76605;" d="M1166.8,545.8
			l-16.1,235.5c-1.9,27.5,23.3,36.5,39.4,14.2l137.7-191.4L1166.8,545.8z"/>
		<path style="clip-path:url(#SVGID_00000124844787048799727830000012449275777346698148_);fill:#E76605;" d="M826,545.8l16.1,235.5
			c1.9,27.5-23.3,36.5-39.4,14.2L665,604.1L826,545.8z"/>
		
			<circle style="clip-path:url(#SVGID_00000124844787048799727830000012449275777346698148_);fill:#80453F;" cx="1239.1" cy="1187" r="62.3"/>
		
			<circle style="clip-path:url(#SVGID_00000124844787048799727830000012449275777346698148_);fill:#80453F;" cx="783.2" cy="1187" r="62.3"/>
		
			<line style="clip-path:url(#SVGID_00000124844787048799727830000012449275777346698148_);fill:none;stroke:#80453F;stroke-width:36.9676;stroke-linecap:round;stroke-linejoin:round;stroke-miterlimit:10;" x1="1013.1" y1="1206.7" x2="1013.1" y2="1379.8"/>
		<path style="clip-path:url(#SVGID_00000124844787048799727830000012449275777346698148_);fill:#80453F;" d="M938.1,1167.3h150
			c22.7,0,33.9,27.6,17.6,43.4l-75,72.6c-9.8,9.5-25.4,9.5-35.2,0l-75-72.6C904.2,1194.9,915.4,1167.3,938.1,1167.3z"/>
		
			<path style="clip-path:url(#SVGID_00000124844787048799727830000012449275777346698148_);fill:none;stroke:#80453F;stroke-width:36.9676;stroke-linecap:round;stroke-linejoin:round;stroke-miterlimit:10;" d="
			M898.9,1340.2c0,0,105.9,92.4,237.7,0"/>
	</g>
</g>
</svg>
