<?xml version="1.0" encoding="utf-8"?>
<!-- Generator: Adobe Illustrator 27.8.1, SVG Export Plug-In . SVG Version: 6.00 Build 0)  -->
<svg version="1.1" id="Layer_1" xmlns="http://www.w3.org/2000/svg" xmlns:xlink="http://www.w3.org/1999/xlink" x="0px" y="0px"
	 viewBox="0 0 2000 2000" style="enable-background:new 0 0 2000 2000;" xml:space="preserve">
<style type="text/css">
	.st0{fill:#F7CE65;}
	.st1{fill:#98594A;}
	.st2{fill:#F2BBAC;}
	.st3{fill:#512820;}
	.st4{fill:none;stroke:#512820;stroke-width:35.1007;stroke-linecap:round;stroke-linejoin:round;stroke-miterlimit:10;}
	.st5{fill:#80453F;}
</style>
<rect class="st0" width="2000" height="2000"/>
<g>
	<path class="st1" d="M1012,1607.2h-21.2c-292.2,0-529.1-236.9-529.1-529.1V921.8c0-292.2,236.9-529.1,529.1-529.1h21.2
		c292.2,0,529.1,236.9,529.1,529.1v156.3C1541.1,1370.4,1304.2,1607.2,1012,1607.2z"/>
	<circle class="st2" cx="1232.7" cy="1039.7" r="210.2"/>
	<ellipse class="st3" cx="1012" cy="1178.2" rx="171.3" ry="128.3"/>
	<circle class="st3" cx="1242.5" cy="1033.9" r="59.1"/>
	<circle class="st3" cx="785" cy="1033.9" r="59.1"/>
	<line class="st4" x1="1011.1" y1="1235.3" x2="1011.1" y2="1399.7"/>
	<path class="st4" d="M902.6,1362.1c0,0,100.6,87.8,225.7,0"/>
	<path class="st5" d="M1457.1,508.8l227.5,141.5c104.7,65.1,170.2,193.7,170.2,333.8v0c0,156.4-107,283.2-239,283.2h0
		c-126.8,0-231.6-117.4-238.7-267.4l-19.6-415.2C1354.5,522.2,1410.3,479.7,1457.1,508.8z"/>
	<path class="st5" d="M542.9,508.8L315.5,650.3C210.8,715.5,145.2,844,145.2,984.1v0c0,156.4,107,283.2,239,283.2h0
		c126.8,0,231.6-117.4,238.7-267.4l19.6-415.2C645.5,522.2,589.7,479.7,542.9,508.8z"/>
</g>
</svg>
