<?xml version="1.0" encoding="utf-8"?>
<!-- Generator: Adobe Illustrator 27.8.1, SVG Export Plug-In . SVG Version: 6.00 Build 0)  -->
<svg version="1.1" id="Layer_1" xmlns="http://www.w3.org/2000/svg" xmlns:xlink="http://www.w3.org/1999/xlink" x="0px" y="0px"
	 viewBox="0 0 2000 2000" style="enable-background:new 0 0 2000 2000;" xml:space="preserve">
<style type="text/css">
	.st0{fill:#FFDC9F;}
	.st1{fill:#549772;}
	.st2{fill:#512820;}
	.st3{fill:none;stroke:#512820;stroke-width:36.4668;stroke-linecap:round;stroke-linejoin:round;stroke-miterlimit:10;}
	.st4{fill:#F2BBAC;}
</style>
<rect class="st0" width="2000" height="2000"/>
<g>
	<ellipse class="st1" cx="1000" cy="1091.2" rx="633.9" ry="470.9"/>
	<path class="st1" d="M797,1032.2L797,1032.2c-121.2,0-219.5-98.3-219.5-219.5V657.3c0-121.2,98.3-219.5,219.5-219.5h0
		c121.2,0,219.5,98.3,219.5,219.5v155.3C1016.5,933.9,918.2,1032.2,797,1032.2z"/>
	<path class="st1" d="M1200,1032.2L1200,1032.2c-121.2,0-219.5-98.3-219.5-219.5V657.3c0-121.2,98.3-219.5,219.5-219.5h0
		c121.2,0,219.5,98.3,219.5,219.5v155.3C1419.5,933.9,1321.2,1032.2,1200,1032.2z"/>
	<circle class="st2" cx="1207.4" cy="735" r="65.6"/>
	<circle class="st2" cx="815.3" cy="735" r="65.6"/>
	<path class="st3" d="M877.3,921.3c0,0,111.5,97.3,250.3,0"/>
	<circle class="st4" cx="615.7" cy="1032.2" r="181"/>
	<circle class="st4" cx="1364.3" cy="1032.2" r="181"/>
</g>
</svg>
