<?xml version="1.0" encoding="utf-8"?>
<!-- Generator: Adobe Illustrator 27.8.1, SVG Export Plug-In . SVG Version: 6.00 Build 0)  -->
<svg version="1.1" id="Layer_1" xmlns="http://www.w3.org/2000/svg" xmlns:xlink="http://www.w3.org/1999/xlink" x="0px" y="0px"
	 viewBox="0 0 2000 2000" style="enable-background:new 0 0 2000 2000;" xml:space="preserve">
<style type="text/css">
	.st0{fill:#FFCCC0;}
	.st1{fill:#80453F;}
	.st2{fill:none;stroke:#80453F;stroke-width:26.9155;stroke-linecap:round;stroke-linejoin:round;stroke-miterlimit:10;}
	.st3{fill:#87BA82;}
	.st4{fill:#512820;}
	.st5{fill:none;stroke:#512820;stroke-width:22.0149;stroke-linecap:round;stroke-linejoin:round;stroke-miterlimit:10;}
	.st6{clip-path:url(#SVGID_00000055685189107615380830000010673228500941898933_);fill:#98594A;}
	
		.st7{clip-path:url(#SVGID_00000055685189107615380830000010673228500941898933_);fill:none;stroke:#512820;stroke-width:25.2163;stroke-linecap:round;stroke-linejoin:round;stroke-miterlimit:10;}
</style>
<rect class="st0" width="2000" height="2000"/>
<g>
	<circle class="st1" cx="634.2" cy="730.6" r="57.6"/>
	<circle class="st1" cx="468.9" cy="738.4" r="57.6"/>
	<line class="st2" x1="630.3" y1="768.7" x2="585" y2="1093.8"/>
	<line class="st2" x1="477.2" y1="775.8" x2="536.8" y2="1098.6"/>
	<path class="st3" d="M858.3,1231.8c-15.6-25.2-31.4-48.1-47.5-68.9c1.3-9.6,2-19.3,2-29.2c0-123.6-100.2-223.9-223.9-223.9
		c-66.8,0-126.6,29.2-167.7,75.6c-17.8,13.7-31.1,33.9-36.9,57.3c-12.4,27.8-19.3,58.6-19.3,91c0,60.3,23.9,114.9,62.6,155.2
		c14.7,38.6,31.4,70,48.2,95.5c42.3,64.2,110.9,102,183.6,102h948.7c19.7,0,32.8-20.6,24.3-38.4
		C1487.8,1143.9,858.3,1231.8,858.3,1231.8z"/>
	<g>
		<circle class="st4" cx="651.7" cy="1087.8" r="35.3"/>
		<circle class="st4" cx="444" cy="1087.8" r="35.3"/>
		<path class="st5" d="M505.3,1123.1c0,0,35,40.9,81.6,0"/>
	</g>
	<g>
		<defs>
			<circle id="SVGID_1_" cx="1179.3" cy="966.6" r="453"/>
		</defs>
		<clipPath id="SVGID_00000086687225347446571080000012683638285818378400_">
			<use xlink:href="#SVGID_1_"  style="overflow:visible;"/>
		</clipPath>
		
			<circle style="clip-path:url(#SVGID_00000086687225347446571080000012683638285818378400_);fill:#98594A;" cx="1179.3" cy="966.6" r="453"/>
		
			<path style="clip-path:url(#SVGID_00000086687225347446571080000012683638285818378400_);fill:none;stroke:#512820;stroke-width:25.2163;stroke-linecap:round;stroke-linejoin:round;stroke-miterlimit:10;" d="
			M1011.6,1384.2c115.4-15.2,231-53.9,318.3-130.9c87.3-77,142-196.8,121.1-311.3c-17.5-95.5-88.4-179.5-179.6-212.7
			s-199.5-14.4-274.3,47.5c-67.2,55.7-106,146.8-90.6,232.7s88.9,160.5,175.7,168.8c86.8,8.3,176.9-57.2,187.9-143.7
			c6.4-50.4-16.1-106.4-61.8-128.5c-45.7-22.1-111,2.4-121.7,52.1"/>
	</g>
</g>
</svg>
