<?xml version="1.0" standalone="no"?>
<!DOCTYPE svg PUBLIC "-//W3C//DTD SVG 20010904//EN"
 "http://www.w3.org/TR/2001/REC-SVG-20010904/DTD/svg10.dtd">
<svg version="1.0" xmlns="http://www.w3.org/2000/svg"
 width="1024.000000pt" height="1024.000000pt" viewBox="0 0 1024.000000 1024.000000"
 preserveAspectRatio="xMidYMid meet">
<metadata>
Created by potrace 1.11, written by Peter Selinger 2001-2013
</metadata>
<g transform="translate(0.000000,1024.000000) scale(0.100000,-0.100000)"
fill="#000000" stroke="none">
<path d="M4858 10236 c-1 -2 -50 -6 -108 -10 -58 -3 -116 -8 -130 -11 -14 -2
-50 -6 -80 -9 -81 -7 -261 -34 -375 -57 -55 -11 -113 -23 -130 -25 -102 -18
-481 -125 -580 -164 -16 -6 -37 -13 -45 -15 -15 -3 -88 -30 -125 -45 -11 -5
-60 -25 -110 -45 -282 -114 -598 -281 -860 -453 -127 -84 -406 -288 -455 -334
-14 -13 -38 -34 -55 -46 -173 -133 -524 -500 -721 -753 -293 -375 -547 -818
-717 -1249 -103 -262 -187 -525 -232 -730 -26 -117 -37 -170 -55 -270 -18
-105 -20 -115 -26 -160 -3 -25 -7 -56 -10 -70 -2 -14 -6 -52 -9 -85 -3 -33 -8
-69 -10 -80 -26 -131 -27 -797 0 -1011 3 -22 7 -57 9 -79 14 -119 21 -166 52
-335 41 -227 36 -200 74 -350 58 -226 160 -529 244 -725 88 -204 232 -487 329
-645 162 -263 376 -557 532 -730 180 -200 459 -474 537 -528 13 -9 32 -25 43
-35 100 -95 493 -373 662 -469 41 -24 96 -55 122 -71 72 -42 428 -217 443
-217 8 0 18 -4 23 -9 27 -24 544 -211 585 -211 9 0 20 -3 24 -7 3 -4 12 -8 19
-9 7 -2 46 -12 87 -23 66 -18 270 -64 340 -77 14 -3 59 -11 101 -19 42 -8 114
-19 160 -25 46 -5 95 -12 109 -14 26 -5 97 -12 235 -23 171 -15 766 -7 862 11
10 2 50 7 88 10 39 4 80 8 92 10 12 3 43 7 70 11 26 3 71 10 98 15 28 5 64 12
80 15 312 51 855 217 1135 347 157 73 339 164 424 212 54 31 101 56 103 56 5
0 37 21 238 152 855 560 1530 1385 1918 2344 101 250 197 549 242 759 22 102
53 255 60 293 3 17 7 44 10 60 8 48 26 176 31 222 2 25 6 63 9 85 26 231 27
846 1 1005 -3 14 -7 52 -10 85 -12 113 -32 243 -62 395 -14 69 -27 136 -30
150 -31 159 -134 495 -227 735 -75 196 -263 589 -318 667 -11 14 -19 29 -19
32 0 10 -166 273 -237 374 -60 86 -216 290 -273 357 -196 230 -456 487 -650
644 -25 20 -47 39 -50 42 -17 20 -279 211 -400 291 -505 334 -1064 574 -1656
713 -178 42 -444 89 -564 100 -19 1 -64 6 -100 10 -36 4 -85 9 -110 11 -54 5
-647 14 -652 10z"/>
</g>
</svg>
