<svg xmlns="http://www.w3.org/2000/svg" xmlns:xlink="http://www.w3.org/1999/xlink" width="600" zoomAndPan="magnify" viewBox="0 0 450 149.999998" height="200" preserveAspectRatio="xMidYMid meet" version="1.0"><defs><g/><clipPath id="fa4a66bf3f"><path d="M 0 0.90625 L 450 0.90625 L 450 150 L 0 150 Z M 0 0.90625 " clip-rule="nonzero"/></clipPath><clipPath id="647bae071d"><path d="M 450 0.90625 L 0 0.90625 L 32.691406 75.453125 L 0 150 L 450 150 L 417.308594 75.453125 L 450 0.90625 " clip-rule="nonzero"/></clipPath><clipPath id="7a39d3ed19"><path d="M 68.6875 0.90625 L 366.878906 0.90625 L 366.878906 150 L 68.6875 150 Z M 68.6875 0.90625 " clip-rule="nonzero"/></clipPath><clipPath id="01f2087e99"><path d="M 366.878906 0.90625 L 68.6875 0.90625 L 105.960938 75.453125 L 68.6875 150 L 366.878906 150 L 329.605469 75.453125 L 366.878906 0.90625 " clip-rule="nonzero"/></clipPath><clipPath id="ac30e0dbd3"><path d="M 143.851562 0.90625 L 306.34375 0.90625 L 306.34375 150 L 143.851562 150 Z M 143.851562 0.90625 " clip-rule="nonzero"/></clipPath><clipPath id="6d71b4a944"><path d="M 306.148438 0.90625 L 143.851562 0.90625 L 181.125 75.453125 L 143.851562 150 L 306.148438 150 L 268.875 75.453125 L 306.148438 0.90625 " clip-rule="nonzero"/></clipPath></defs><g clip-path="url(#fa4a66bf3f)"><g clip-path="url(#647bae071d)"><path fill="#2e7d32" d="M 0 0.90625 L 450.195312 0.90625 L 450.195312 150.0625 L 0 150.0625 Z M 0 0.90625 " fill-opacity="1" fill-rule="nonzero"/></g></g><g clip-path="url(#7a39d3ed19)"><g clip-path="url(#01f2087e99)"><path fill="#43a047" d="M 68.6875 0.90625 L 366.878906 0.90625 L 366.878906 150 L 68.6875 150 Z M 68.6875 0.90625 " fill-opacity="1" fill-rule="nonzero"/></g></g><g clip-path="url(#ac30e0dbd3)"><g clip-path="url(#6d71b4a944)"><path fill="#8bc34a" d="M 143.851562 0.90625 L 306.34375 0.90625 L 306.34375 150 L 143.851562 150 Z M 143.851562 0.90625 " fill-opacity="1" fill-rule="nonzero"/></g></g><g fill="#ffffff" fill-opacity="1"><g transform="translate(30.164064, 34.627159)"><g><path d="M 14.949219 0 L 17.355469 0 L 9.898438 -20.621094 L 7.457031 -20.621094 L 0 0 L 2.40625 0 L 4.089844 -4.8125 L 13.265625 -4.8125 Z M 4.8125 -6.90625 L 8.695312 -18.007812 L 12.542969 -6.90625 Z M 4.8125 -6.90625 "/></g></g></g><g fill="#ffffff" fill-opacity="1"><g transform="translate(47.518479, 34.627159)"><g><path d="M 9.210938 -14.023438 C 7.25 -14.023438 5.671875 -13.164062 4.640625 -11.789062 L 4.640625 -13.746094 L 2.507812 -13.746094 L 2.507812 0 L 4.640625 0 L 4.640625 -7.457031 C 4.640625 -9.96875 6.703125 -11.890625 9.210938 -11.890625 C 9.625 -11.890625 9.96875 -11.855469 10.277344 -11.753906 L 10.277344 -13.917969 C 9.96875 -13.988281 9.625 -14.023438 9.210938 -14.023438 Z M 9.210938 -14.023438 "/></g></g></g><g fill="#ffffff" fill-opacity="1"><g transform="translate(57.965492, 34.627159)"><g><path d="M 15.84375 -7.011719 C 15.742188 -10.964844 12.613281 -14.023438 8.695312 -14.023438 C 4.742188 -14.023438 1.546875 -10.824219 1.546875 -6.875 C 1.546875 -2.921875 4.742188 0.273438 8.695312 0.273438 C 11.960938 0.273438 14.675781 -1.890625 15.570312 -4.847656 L 13.300781 -4.847656 C 12.542969 -3.058594 10.757812 -1.855469 8.695312 -1.855469 C 5.980469 -1.855469 3.816406 -3.917969 3.675781 -6.5625 L 15.808594 -6.5625 Z M 8.695312 -11.890625 C 10.894531 -11.890625 12.75 -10.484375 13.402344 -8.488281 L 3.953125 -8.488281 C 4.640625 -10.484375 6.496094 -11.890625 8.695312 -11.890625 Z M 8.695312 -11.890625 "/></g></g></g><g fill="#ffffff" fill-opacity="1"><g transform="translate(75.216808, 34.627159)"><g/></g></g><g fill="#ffffff" fill-opacity="1"><g transform="translate(83.498816, 34.627159)"><g><path d="M 16.632812 -20.621094 L 13.917969 -20.621094 L 8.351562 -12.0625 L 2.785156 -20.621094 L 0.0351562 -20.621094 L 7.25 -9.761719 L 7.25 0 L 9.453125 0 L 9.453125 -9.796875 Z M 16.632812 -20.621094 "/></g></g></g><g fill="#ffffff" fill-opacity="1"><g transform="translate(100.165922, 34.627159)"><g><path d="M 8.695312 0.273438 C 12.648438 0.273438 15.84375 -2.921875 15.84375 -6.875 C 15.84375 -10.824219 12.648438 -14.023438 8.695312 -14.023438 C 4.742188 -14.023438 1.546875 -10.824219 1.546875 -6.875 C 1.546875 -2.921875 4.742188 0.273438 8.695312 0.273438 Z M 8.695312 -1.855469 C 5.910156 -1.855469 3.675781 -4.089844 3.675781 -6.875 C 3.675781 -9.65625 5.910156 -11.890625 8.695312 -11.890625 C 11.445312 -11.890625 13.714844 -9.65625 13.714844 -6.875 C 13.714844 -4.089844 11.445312 -1.855469 8.695312 -1.855469 Z M 8.695312 -1.855469 "/></g></g></g><g fill="#ffffff" fill-opacity="1"><g transform="translate(117.554703, 34.627159)"><g><path d="M 7.21875 0.273438 C 10.277344 0.273438 12.371094 -1.753906 12.371094 -4.949219 L 12.371094 -13.746094 L 10.277344 -13.746094 L 10.277344 -5.191406 C 10.277344 -3.128906 9.003906 -1.855469 7.21875 -1.855469 C 5.464844 -1.855469 4.160156 -3.128906 4.160156 -5.191406 L 4.160156 -13.746094 L 2.0625 -13.746094 L 2.0625 -4.949219 C 2.0625 -1.753906 4.125 0.273438 7.21875 0.273438 Z M 7.21875 0.273438 "/></g></g></g><g fill="#ffffff" fill-opacity="1"><g transform="translate(131.953716, 34.627159)"><g/></g></g><g fill="#ffffff" fill-opacity="1"><g transform="translate(140.235725, 34.627159)"><g><path d="M 14.949219 0 L 17.355469 0 L 9.898438 -20.621094 L 7.457031 -20.621094 L 0 0 L 2.40625 0 L 4.089844 -4.8125 L 13.265625 -4.8125 Z M 4.8125 -6.90625 L 8.695312 -18.007812 L 12.542969 -6.90625 Z M 4.8125 -6.90625 "/></g></g></g><g fill="#ffffff" fill-opacity="1"><g transform="translate(157.59014, 34.627159)"><g/></g></g><g fill="#ffffff" fill-opacity="1"><g transform="translate(165.872148, 34.627159)"><g><path d="M 12.339844 -10.929688 L 12.339844 -8.867188 L 20.621094 -8.867188 C 19.96875 -4.878906 16.53125 -1.925781 12.371094 -1.925781 C 7.734375 -1.925781 3.988281 -5.636719 3.988281 -10.3125 C 3.988281 -14.984375 7.734375 -18.695312 12.371094 -18.695312 C 15.5 -18.695312 18.25 -17.011719 19.660156 -14.46875 L 21.550781 -15.535156 C 19.761719 -18.730469 16.324219 -20.894531 12.371094 -20.894531 C 6.496094 -20.894531 1.789062 -16.152344 1.789062 -10.3125 C 1.789062 -4.46875 6.496094 0.273438 12.371094 0.273438 C 18.214844 0.273438 22.957031 -4.46875 22.957031 -10.3125 L 22.957031 -10.929688 Z M 12.339844 -10.929688 "/></g></g></g><g fill="#ffffff" fill-opacity="1"><g transform="translate(190.580708, 34.627159)"><g><path d="M 9.210938 -14.023438 C 7.25 -14.023438 5.671875 -13.164062 4.640625 -11.789062 L 4.640625 -13.746094 L 2.507812 -13.746094 L 2.507812 0 L 4.640625 0 L 4.640625 -7.457031 C 4.640625 -9.96875 6.703125 -11.890625 9.210938 -11.890625 C 9.625 -11.890625 9.96875 -11.855469 10.277344 -11.753906 L 10.277344 -13.917969 C 9.96875 -13.988281 9.625 -14.023438 9.210938 -14.023438 Z M 9.210938 -14.023438 "/></g></g></g><g fill="#ffffff" fill-opacity="1"><g transform="translate(201.027721, 34.627159)"><g><path d="M 17.253906 -1.789062 C 16.496094 -1.789062 15.84375 -2.300781 15.84375 -3.574219 L 15.84375 -13.746094 L 13.714844 -13.746094 L 13.714844 -11.960938 C 12.441406 -13.230469 10.65625 -14.023438 8.695312 -14.023438 C 4.742188 -14.023438 1.546875 -10.824219 1.546875 -6.875 C 1.546875 -2.921875 4.742188 0.273438 8.695312 0.273438 C 10.757812 0.273438 12.613281 -0.6875 13.917969 -2.097656 C 14.367188 -0.6875 15.464844 0.273438 17.082031 0.273438 C 17.460938 0.273438 17.835938 0.171875 18.113281 0 L 18.113281 -1.789062 Z M 8.695312 -1.855469 C 5.910156 -1.855469 3.675781 -4.089844 3.675781 -6.875 C 3.675781 -9.65625 5.910156 -11.890625 8.695312 -11.890625 C 11.445312 -11.890625 13.714844 -9.65625 13.714844 -6.875 C 13.714844 -4.089844 11.445312 -1.855469 8.695312 -1.855469 Z M 8.695312 -1.855469 "/></g></g></g><g fill="#ffffff" fill-opacity="1"><g transform="translate(219.550555, 34.627159)"><g><path d="M 9.65625 -14.023438 C 7.699219 -14.023438 5.945312 -13.230469 4.640625 -11.960938 L 4.640625 -13.746094 L 2.507812 -13.746094 L 2.507812 8.25 L 4.640625 8.25 L 4.640625 -1.789062 C 5.945312 -0.515625 7.699219 0.273438 9.65625 0.273438 C 13.609375 0.273438 16.804688 -2.921875 16.804688 -6.875 C 16.804688 -10.824219 13.609375 -14.023438 9.65625 -14.023438 Z M 9.65625 -1.855469 C 6.875 -1.855469 4.640625 -4.089844 4.640625 -6.875 C 4.640625 -9.65625 6.875 -11.890625 9.65625 -11.890625 C 12.441406 -11.890625 14.675781 -9.65625 14.675781 -6.875 C 14.675781 -4.089844 12.441406 -1.855469 9.65625 -1.855469 Z M 9.65625 -1.855469 "/></g></g></g><g fill="#ffffff" fill-opacity="1"><g transform="translate(237.901555, 34.627159)"><g><path d="M 7.699219 -14.023438 C 6.5625 -14.023438 5.5 -13.644531 4.640625 -13.027344 L 4.640625 -25.296875 L 2.507812 -25.296875 L 2.507812 0 L 4.640625 0 L 4.640625 -8.796875 C 4.640625 -10.550781 6.015625 -11.890625 7.699219 -11.890625 C 9.382812 -11.890625 10.792969 -10.550781 10.792969 -8.796875 L 10.792969 0 L 12.886719 0 L 12.886719 -8.796875 C 12.886719 -11.71875 10.585938 -14.023438 7.699219 -14.023438 Z M 7.699219 -14.023438 "/></g></g></g><g fill="#ffffff" fill-opacity="1"><g transform="translate(253.125332, 34.627159)"><g><path d="M 3.847656 -16.324219 C 4.640625 -16.324219 5.328125 -16.976562 5.328125 -17.769531 C 5.328125 -18.628906 4.640625 -19.246094 3.847656 -19.246094 C 3.023438 -19.246094 2.335938 -18.628906 2.335938 -17.769531 C 2.335938 -16.976562 3.023438 -16.324219 3.847656 -16.324219 Z M 2.785156 0 L 4.914062 0 L 4.914062 -13.746094 L 2.785156 -13.746094 Z M 2.785156 0 "/></g></g></g><g fill="#ffffff" fill-opacity="1"><g transform="translate(260.788776, 34.627159)"><g><path d="M 8.695312 0.273438 C 11.890625 0.273438 14.574219 -1.789062 15.5 -4.675781 L 13.230469 -4.675781 C 12.40625 -2.988281 10.6875 -1.855469 8.695312 -1.855469 C 5.910156 -1.855469 3.675781 -4.054688 3.675781 -6.875 C 3.675781 -9.691406 5.910156 -11.890625 8.695312 -11.890625 C 10.6875 -11.890625 12.40625 -10.757812 13.230469 -9.074219 L 15.5 -9.074219 C 14.574219 -11.960938 11.890625 -14.023438 8.695312 -14.023438 C 4.742188 -14.023438 1.546875 -10.824219 1.546875 -6.875 C 1.546875 -2.921875 4.742188 0.273438 8.695312 0.273438 Z M 8.695312 0.273438 "/></g></g></g><g fill="#ffffff" fill-opacity="1"><g transform="translate(277.180971, 34.627159)"><g/></g></g><g fill="#ffffff" fill-opacity="1"><g transform="translate(285.462968, 34.627159)"><g><path d="M 2.507812 0 L 8.144531 0 C 13.816406 0 18.457031 -4.605469 18.457031 -10.3125 C 18.457031 -16.015625 13.816406 -20.621094 8.144531 -20.621094 L 2.507812 -20.621094 Z M 4.675781 -2.199219 L 4.675781 -18.421875 L 8.109375 -18.421875 C 12.683594 -18.421875 16.257812 -14.949219 16.257812 -10.3125 C 16.257812 -5.671875 12.683594 -2.199219 8.109375 -2.199219 Z M 4.675781 -2.199219 "/></g></g></g><g fill="#ffffff" fill-opacity="1"><g transform="translate(305.600953, 34.627159)"><g><path d="M 15.84375 -7.011719 C 15.742188 -10.964844 12.613281 -14.023438 8.695312 -14.023438 C 4.742188 -14.023438 1.546875 -10.824219 1.546875 -6.875 C 1.546875 -2.921875 4.742188 0.273438 8.695312 0.273438 C 11.960938 0.273438 14.675781 -1.890625 15.570312 -4.847656 L 13.300781 -4.847656 C 12.542969 -3.058594 10.757812 -1.855469 8.695312 -1.855469 C 5.980469 -1.855469 3.816406 -3.917969 3.675781 -6.5625 L 15.808594 -6.5625 Z M 8.695312 -11.890625 C 10.894531 -11.890625 12.75 -10.484375 13.402344 -8.488281 L 3.953125 -8.488281 C 4.640625 -10.484375 6.496094 -11.890625 8.695312 -11.890625 Z M 8.695312 -11.890625 "/></g></g></g><g fill="#ffffff" fill-opacity="1"><g transform="translate(322.852279, 34.627159)"><g><path d="M 5.910156 0.273438 C 8.316406 0.273438 10.3125 -1.339844 10.3125 -3.710938 C 10.3125 -6.1875 8.25 -7.148438 6.460938 -7.871094 C 4.777344 -8.59375 3.917969 -8.96875 3.917969 -10.171875 C 3.917969 -11.339844 4.707031 -11.890625 5.84375 -11.890625 C 6.734375 -11.890625 7.527344 -11.511719 7.90625 -10.792969 L 9.761719 -11.753906 C 9.246094 -12.992188 7.492188 -14.023438 5.738281 -14.023438 C 3.710938 -14.023438 1.753906 -12.613281 1.753906 -10.105469 C 1.753906 -7.9375 3.195312 -6.839844 5.636719 -5.910156 C 7.285156 -5.257812 8.179688 -4.8125 8.179688 -3.710938 C 8.179688 -2.507812 7.148438 -1.820312 5.910156 -1.820312 C 4.640625 -1.820312 3.402344 -2.542969 3.195312 -3.539062 L 1.132812 -2.714844 C 1.648438 -1.066406 3.710938 0.273438 5.910156 0.273438 Z M 5.910156 0.273438 "/></g></g></g><g fill="#ffffff" fill-opacity="1"><g transform="translate(334.227156, 34.627159)"><g><path d="M 3.847656 -16.324219 C 4.640625 -16.324219 5.328125 -16.976562 5.328125 -17.769531 C 5.328125 -18.628906 4.640625 -19.246094 3.847656 -19.246094 C 3.023438 -19.246094 2.335938 -18.628906 2.335938 -17.769531 C 2.335938 -16.976562 3.023438 -16.324219 3.847656 -16.324219 Z M 2.785156 0 L 4.914062 0 L 4.914062 -13.746094 L 2.785156 -13.746094 Z M 2.785156 0 "/></g></g></g><g fill="#ffffff" fill-opacity="1"><g transform="translate(341.890577, 34.627159)"><g><path d="M 13.679688 -13.746094 L 13.679688 -12.027344 C 12.40625 -13.265625 10.621094 -14.023438 8.695312 -14.023438 C 4.742188 -14.023438 1.546875 -10.859375 1.546875 -6.875 C 1.546875 -2.921875 4.742188 0.273438 8.695312 0.273438 C 10.65625 0.273438 12.40625 -0.515625 13.714844 -1.789062 L 13.714844 1.203125 C 13.714844 3.953125 11.445312 6.222656 8.695312 6.222656 C 6.460938 6.222656 4.570312 4.742188 3.917969 2.75 L 1.960938 3.609375 C 2.957031 6.394531 5.601562 8.351562 8.695312 8.351562 C 12.648438 8.351562 15.84375 5.15625 15.84375 1.203125 L 15.84375 -13.746094 Z M 8.695312 -1.855469 C 5.910156 -1.855469 3.675781 -4.125 3.675781 -6.875 C 3.675781 -9.65625 5.910156 -11.890625 8.695312 -11.890625 C 11.445312 -11.890625 13.714844 -9.65625 13.714844 -6.875 C 13.714844 -4.125 11.445312 -1.855469 8.695312 -1.855469 Z M 8.695312 -1.855469 "/></g></g></g><g fill="#ffffff" fill-opacity="1"><g transform="translate(360.24159, 34.627159)"><g><path d="M 7.972656 -14.023438 C 6.703125 -14.023438 5.535156 -13.507812 4.640625 -12.648438 L 4.640625 -13.746094 L 2.507812 -13.746094 L 2.507812 0 L 4.640625 0 L 4.640625 -8.765625 C 4.640625 -10.515625 6.050781 -11.890625 7.800781 -11.890625 C 9.554688 -11.890625 10.929688 -10.515625 10.929688 -8.765625 L 10.929688 0 L 13.058594 0 L 13.058594 -8.765625 C 13.058594 -11.683594 10.621094 -14.023438 7.972656 -14.023438 Z M 7.972656 -14.023438 "/></g></g></g><g fill="#ffffff" fill-opacity="1"><g transform="translate(375.637189, 34.627159)"><g><path d="M 15.84375 -7.011719 C 15.742188 -10.964844 12.613281 -14.023438 8.695312 -14.023438 C 4.742188 -14.023438 1.546875 -10.824219 1.546875 -6.875 C 1.546875 -2.921875 4.742188 0.273438 8.695312 0.273438 C 11.960938 0.273438 14.675781 -1.890625 15.570312 -4.847656 L 13.300781 -4.847656 C 12.542969 -3.058594 10.757812 -1.855469 8.695312 -1.855469 C 5.980469 -1.855469 3.816406 -3.917969 3.675781 -6.5625 L 15.808594 -6.5625 Z M 8.695312 -11.890625 C 10.894531 -11.890625 12.75 -10.484375 13.402344 -8.488281 L 3.953125 -8.488281 C 4.640625 -10.484375 6.496094 -11.890625 8.695312 -11.890625 Z M 8.695312 -11.890625 "/></g></g></g><g fill="#ffffff" fill-opacity="1"><g transform="translate(392.888515, 34.627159)"><g><path d="M 9.210938 -14.023438 C 7.25 -14.023438 5.671875 -13.164062 4.640625 -11.789062 L 4.640625 -13.746094 L 2.507812 -13.746094 L 2.507812 0 L 4.640625 0 L 4.640625 -7.457031 C 4.640625 -9.96875 6.703125 -11.890625 9.210938 -11.890625 C 9.625 -11.890625 9.96875 -11.855469 10.277344 -11.753906 L 10.277344 -13.917969 C 9.96875 -13.988281 9.625 -14.023438 9.210938 -14.023438 Z M 9.210938 -14.023438 "/></g></g></g><g fill="#ffffff" fill-opacity="1"><g transform="translate(403.335528, 34.627159)"><g><path d="M 7.699219 -5.738281 L 9.65625 -5.738281 L 9.65625 -10.515625 C 9.65625 -13.714844 14.574219 -12.542969 14.574219 -17.871094 C 14.574219 -21.101562 12.097656 -23.472656 8.660156 -23.472656 C 5.328125 -23.472656 2.851562 -21.101562 2.785156 -17.90625 L 4.707031 -17.90625 C 4.8125 -20.035156 6.460938 -21.617188 8.660156 -21.617188 C 11.03125 -21.617188 12.683594 -20.035156 12.683594 -17.871094 C 12.683594 -13.335938 7.699219 -15.328125 7.699219 -10.277344 Z M 8.796875 0.273438 C 9.589844 0.273438 10.277344 -0.378906 10.277344 -1.203125 C 10.277344 -1.992188 9.589844 -2.679688 8.796875 -2.679688 C 7.972656 -2.679688 7.285156 -1.992188 7.285156 -1.203125 C 7.285156 -0.378906 7.972656 0.273438 8.796875 0.273438 Z M 8.796875 0.273438 "/></g></g></g><g fill="#ffffff" fill-opacity="1"><g transform="translate(76.530799, 86.669015)"><g><path d="M 43.792969 -26.878906 C 42.609375 -26.609375 41.613281 -26.152344 40.851562 -25.082031 C 39.589844 -23.289062 39.058594 -21.226562 38.636719 -19.164062 C 38.332031 -17.5625 37.949219 -15.996094 37.722656 -14.429688 C 37.492188 -13.019531 37.035156 -11.683594 36.804688 -10.269531 C 36.726562 -9.8125 36.691406 -9.277344 36.382812 -8.820312 C 36.308594 -8.894531 36.230469 -8.933594 36.230469 -8.972656 C 35.582031 -10.996094 34.894531 -13.019531 34.324219 -15.082031 C 33.863281 -16.722656 33.445312 -18.402344 32.988281 -20.042969 C 32.910156 -20.3125 32.832031 -20.539062 32.796875 -20.808594 C 32.375 -22.449219 31.917969 -24.089844 31.535156 -25.734375 C 31.460938 -26.191406 31.230469 -26.457031 30.808594 -26.726562 C 27.679688 -26.609375 24.472656 -26.878906 21.304688 -26.496094 C 21.226562 -26.230469 21.1875 -26.039062 21.113281 -25.847656 C 20.464844 -23.632812 20.160156 -21.34375 19.585938 -19.128906 C 18.820312 -16.226562 18.171875 -13.25 17.449219 -10.347656 C 17.332031 -9.886719 17.296875 -9.390625 16.914062 -8.972656 C 16.796875 -9.199219 16.722656 -9.316406 16.683594 -9.507812 C 15.957031 -12.292969 15.042969 -15.082031 14.507812 -17.945312 C 14.011719 -20.617188 13.132812 -23.210938 12.636719 -25.886719 C 12.5625 -26.457031 12.253906 -26.6875 11.683594 -26.648438 C 10.84375 -26.574219 10.003906 -26.6875 9.199219 -26.648438 C 8.054688 -26.609375 6.910156 -26.574219 5.765625 -26.574219 C 4.46875 -26.535156 3.207031 -26.574219 1.910156 -26.574219 C 1.601562 -26.574219 1.183594 -26.648438 0.953125 -26.417969 C 0.953125 -26.113281 0.992188 -25.734375 1.105469 -25.464844 C 1.527344 -24.128906 1.71875 -22.832031 2.253906 -21.496094 C 2.519531 -20.882812 2.710938 -20.234375 2.863281 -19.625 C 3.398438 -16.988281 4.160156 -14.429688 4.964844 -11.875 C 5.460938 -10.230469 5.992188 -8.589844 6.492188 -6.949219 L 8.171875 -1.144531 C 8.285156 -0.726562 8.476562 -0.34375 8.78125 -0.0390625 C 9.199219 0.0390625 9.621094 0 10.003906 0 C 11.300781 0.0390625 12.597656 0 13.898438 0.078125 C 15.234375 0.191406 16.609375 0.152344 17.945312 0.152344 C 18.402344 0.152344 18.746094 -0.113281 18.820312 -0.535156 C 18.976562 -1.640625 19.394531 -2.710938 19.625 -3.78125 C 19.96875 -5.191406 20.273438 -6.605469 20.691406 -7.980469 L 22.066406 -12.40625 C 22.527344 -13.859375 22.945312 -15.308594 23.289062 -16.835938 C 23.519531 -16.761719 23.59375 -16.683594 23.59375 -16.570312 C 24.128906 -14.507812 24.816406 -12.484375 25.273438 -10.421875 C 25.542969 -9.046875 25.886719 -7.675781 26.304688 -6.335938 C 26.953125 -4.429688 27.566406 -2.519531 27.945312 -0.535156 C 28.023438 -0.304688 28.136719 -0.152344 28.214844 -0.113281 C 31.726562 -0.152344 35.125 0.265625 38.445312 -0.230469 C 38.714844 -0.574219 38.789062 -0.917969 38.867188 -1.296875 C 39.324219 -3.320312 39.820312 -5.382812 40.429688 -7.367188 C 40.964844 -9.238281 41.234375 -11.148438 41.652344 -13.019531 C 42.265625 -15.804688 42.875 -18.59375 43.636719 -21.304688 C 43.753906 -21.6875 43.90625 -22.066406 44.171875 -22.371094 C 44.667969 -22.984375 45.472656 -23.097656 46.121094 -22.984375 C 46.121094 -23.25 46.234375 -23.480469 46.234375 -23.824219 L 46.234375 -25.425781 C 46.273438 -25.921875 46.3125 -26.382812 46.042969 -26.839844 C 45.28125 -26.917969 44.515625 -27.070312 43.792969 -26.878906 Z M 43.792969 -26.878906 "/></g></g></g><g fill="#ffffff" fill-opacity="1"><g transform="translate(123.86511, 86.669015)"><g><path d="M 14.429688 -20.578125 C 12.867188 -20.730469 11.378906 -20.578125 9.8125 -20.195312 C 8.550781 -19.890625 8.054688 -19.585938 7.101562 -19.128906 C 5.957031 -18.59375 5.078125 -17.828125 4.3125 -16.875 C 2.941406 -15.15625 2.175781 -13.210938 1.832031 -11.109375 C 1.566406 -9.429688 1.757812 -7.75 2.289062 -6.109375 C 2.863281 -4.46875 3.894531 -3.207031 5.191406 -2.214844 C 6.453125 -1.261719 7.519531 -0.609375 9.046875 -0.152344 C 10.269531 0.230469 11.070312 0.230469 12.292969 0.421875 C 13.554688 0.648438 14.851562 0.574219 16.074219 0.421875 C 18.097656 0.265625 19.28125 -0.113281 21.074219 -1.070312 C 21.992188 -1.566406 22.945312 -2.40625 23.710938 -3.246094 C 23.023438 -4.65625 22.183594 -6.300781 21.914062 -6.109375 C 21.496094 -5.917969 21.152344 -5.421875 20.808594 -5.152344 C 19.507812 -4.277344 18.820312 -3.742188 17.21875 -3.589844 C 15.921875 -3.4375 14.660156 -3.511719 13.515625 -4.125 C 12.066406 -4.847656 11.1875 -6.605469 11.414062 -8.171875 C 11.757812 -8.207031 12.140625 -8.324219 12.484375 -8.324219 C 14.355469 -8.207031 16.1875 -8.359375 18.058594 -8.246094 C 20.121094 -8.132812 21.152344 -8.324219 23.210938 -8.324219 C 23.480469 -8.324219 23.9375 -8.207031 23.976562 -8.476562 C 24.015625 -8.589844 24.050781 -8.820312 24.050781 -8.933594 C 24.167969 -11.378906 24.015625 -13.285156 22.90625 -15.347656 C 22.601562 -15.882812 22.371094 -16.492188 21.914062 -16.953125 C 19.664062 -19.164062 17.601562 -20.273438 14.429688 -20.578125 Z M 14.929688 -15.957031 C 15.082031 -15.804688 15.195312 -15.652344 15.273438 -15.460938 C 15.613281 -14.277344 15.84375 -13.09375 15.5 -11.757812 C 14.050781 -11.835938 12.714844 -11.605469 11.261719 -11.757812 C 11.339844 -13.09375 11.492188 -14.394531 12.253906 -15.539062 C 12.867188 -16.492188 14.164062 -16.683594 14.929688 -15.957031 Z M 14.929688 -15.957031 "/></g></g></g><g fill="#ffffff" fill-opacity="1"><g transform="translate(149.669954, 86.669015)"><g><path d="M 2.101562 -26.726562 C 3.015625 -23.480469 3.4375 -20.195312 4.3125 -17.105469 C 5.34375 -16.796875 7.75 -16.835938 8.859375 -17.21875 C 9.125 -20.347656 10.042969 -23.402344 10.382812 -26.609375 C 8.972656 -26.992188 7.636719 -26.648438 6.335938 -26.6875 C 4.964844 -26.761719 3.589844 -26.726562 2.101562 -26.726562 Z M 2.101562 -26.726562 "/></g></g></g><g fill="#ffffff" fill-opacity="1"><g transform="translate(162.076121, 86.669015)"><g><path d="M 19.128906 -20.234375 C 15.539062 -20.578125 13.324219 -19.472656 10.84375 -17.105469 C 10.15625 -17.980469 9.851562 -19.128906 9.085938 -19.851562 C 9.125 -20.082031 3.703125 -19.929688 2.289062 -19.777344 C 2.597656 -13.171875 2.785156 -6.527344 2.710938 -0.113281 C 3.015625 0.152344 3.246094 0.113281 3.472656 0.078125 C 4.46875 0.0390625 5.460938 0.0390625 6.453125 -0.0390625 C 7.828125 -0.191406 9.199219 -0.078125 10.574219 -0.113281 C 11.300781 -0.113281 11.453125 -0.265625 11.53125 -0.992188 L 11.53125 -1.601562 C 11.492188 -2.214844 11.453125 -2.863281 11.492188 -3.472656 C 11.566406 -6.71875 11.414062 -9.582031 11.492188 -12.828125 C 11.644531 -13.09375 11.910156 -13.25 12.140625 -13.476562 C 13.667969 -14.773438 15.003906 -14.851562 16.722656 -14.699219 C 17.410156 -14.621094 18.097656 -14.394531 18.667969 -13.972656 C 18.859375 -13.820312 19.050781 -13.78125 19.28125 -13.972656 C 19.507812 -14.585938 19.355469 -15.273438 19.355469 -15.957031 C 19.394531 -16.609375 19.394531 -17.449219 19.355469 -18.097656 C 19.320312 -18.785156 19.394531 -19.394531 19.128906 -20.234375 Z M 19.128906 -20.234375 "/></g></g></g><g fill="#ffffff" fill-opacity="1"><g transform="translate(182.956657, 86.669015)"><g><path d="M 14.429688 -20.578125 C 12.867188 -20.730469 11.378906 -20.578125 9.8125 -20.195312 C 8.550781 -19.890625 8.054688 -19.585938 7.101562 -19.128906 C 5.957031 -18.59375 5.078125 -17.828125 4.3125 -16.875 C 2.941406 -15.15625 2.175781 -13.210938 1.832031 -11.109375 C 1.566406 -9.429688 1.757812 -7.75 2.289062 -6.109375 C 2.863281 -4.46875 3.894531 -3.207031 5.191406 -2.214844 C 6.453125 -1.261719 7.519531 -0.609375 9.046875 -0.152344 C 10.269531 0.230469 11.070312 0.230469 12.292969 0.421875 C 13.554688 0.648438 14.851562 0.574219 16.074219 0.421875 C 18.097656 0.265625 19.28125 -0.113281 21.074219 -1.070312 C 21.992188 -1.566406 22.945312 -2.40625 23.710938 -3.246094 C 23.023438 -4.65625 22.183594 -6.300781 21.914062 -6.109375 C 21.496094 -5.917969 21.152344 -5.421875 20.808594 -5.152344 C 19.507812 -4.277344 18.820312 -3.742188 17.21875 -3.589844 C 15.921875 -3.4375 14.660156 -3.511719 13.515625 -4.125 C 12.066406 -4.847656 11.1875 -6.605469 11.414062 -8.171875 C 11.757812 -8.207031 12.140625 -8.324219 12.484375 -8.324219 C 14.355469 -8.207031 16.1875 -8.359375 18.058594 -8.246094 C 20.121094 -8.132812 21.152344 -8.324219 23.210938 -8.324219 C 23.480469 -8.324219 23.9375 -8.207031 23.976562 -8.476562 C 24.015625 -8.589844 24.050781 -8.820312 24.050781 -8.933594 C 24.167969 -11.378906 24.015625 -13.285156 22.90625 -15.347656 C 22.601562 -15.882812 22.371094 -16.492188 21.914062 -16.953125 C 19.664062 -19.164062 17.601562 -20.273438 14.429688 -20.578125 Z M 14.929688 -15.957031 C 15.082031 -15.804688 15.195312 -15.652344 15.273438 -15.460938 C 15.613281 -14.277344 15.84375 -13.09375 15.5 -11.757812 C 14.050781 -11.835938 12.714844 -11.605469 11.261719 -11.757812 C 11.339844 -13.09375 11.492188 -14.394531 12.253906 -15.539062 C 12.867188 -16.492188 14.164062 -16.683594 14.929688 -15.957031 Z M 14.929688 -15.957031 "/></g></g></g><g fill="#ffffff" fill-opacity="1"><g transform="translate(208.761501, 86.669015)"><g/></g></g><g fill="#ffffff" fill-opacity="1"><g transform="translate(219.068172, 86.669015)"><g><path d="M 6.109375 -26.6875 C 4.925781 -26.6875 3.78125 -26.535156 2.597656 -26.496094 C 2.175781 -26.496094 2.328125 -25.503906 2.328125 -25.199219 C 2.289062 -24.242188 2.40625 -23.289062 2.328125 -22.296875 C 2.253906 -21.304688 2.328125 -20.3125 2.328125 -18.097656 C 2.480469 -17.140625 2.289062 -16.226562 2.367188 -15.273438 C 2.519531 -13.78125 2.328125 -12.292969 2.367188 -10.765625 C 2.445312 -9.429688 2.367188 -8.09375 2.445312 -6.757812 C 2.445312 -6.300781 2.519531 -5.804688 2.445312 -5.34375 C 2.40625 -4.886719 2.40625 -4.429688 2.445312 -3.96875 C 2.558594 -2.902344 2.367188 -1.871094 2.40625 -0.839844 C 2.445312 -0.230469 2.328125 -0.0390625 2.824219 0.191406 C 2.902344 0.152344 3.128906 0.113281 3.207031 0.113281 C 6.335938 0.078125 9.507812 -0.113281 12.675781 -0.0390625 C 12.90625 -0.0390625 12.941406 -0.304688 12.980469 -0.382812 C 12.714844 -3.933594 12.828125 -7.40625 12.90625 -10.882812 C 13.171875 -10.996094 18.632812 -11.035156 18.820312 -10.957031 C 18.820312 -10.691406 18.785156 -10.382812 18.820312 -10.078125 C 18.976562 -8.894531 18.9375 -7.75 18.898438 -6.527344 C 18.859375 -5.652344 18.785156 -4.734375 18.820312 -3.855469 C 18.859375 -2.75 18.707031 -1.640625 18.820312 -0.574219 C 18.898438 -0.152344 19.050781 0.113281 19.433594 0 C 20.042969 -0.113281 20.691406 -0.0390625 21.304688 0 C 22.371094 0 23.441406 -0.113281 24.472656 0 C 25.390625 0.113281 26.304688 -0.078125 27.222656 -0.0390625 C 27.832031 0 28.441406 -0.0390625 29.09375 -0.078125 C 29.128906 -0.265625 29.285156 -0.496094 29.246094 -0.648438 C 29.128906 -1.601562 29.128906 -2.519531 29.128906 -3.472656 C 29.167969 -4.582031 29.128906 -5.6875 29.207031 -6.796875 C 29.246094 -8.359375 29.285156 -9.886719 29.285156 -11.453125 C 29.320312 -12.101562 29.128906 -12.714844 29.128906 -13.363281 C 29.167969 -14.203125 29.246094 -15.082031 29.207031 -15.957031 C 29.09375 -17.714844 29.285156 -19.433594 29.128906 -21.1875 C 29.015625 -22.335938 29.246094 -23.519531 29.167969 -24.664062 C 29.128906 -25.234375 29.285156 -25.808594 29.167969 -26.382812 C 28.785156 -26.648438 28.367188 -26.726562 27.945312 -26.648438 C 27.296875 -26.535156 26.648438 -26.648438 25.960938 -26.609375 C 25.3125 -26.574219 24.625 -26.648438 23.976562 -26.574219 C 23.210938 -26.496094 22.449219 -26.535156 21.722656 -26.417969 C 20.769531 -26.304688 19.851562 -26.6875 18.820312 -26.382812 C 18.707031 -22.679688 19.011719 -19.011719 18.746094 -15.308594 C 18.59375 -15.308594 18.441406 -15.347656 18.324219 -15.347656 C 17.636719 -15.273438 16.988281 -15.234375 16.339844 -15.195312 L 14.699219 -15.195312 C 14.050781 -15.117188 13.667969 -15.273438 13.019531 -15.195312 C 13.058594 -15.460938 13.058594 -15.691406 13.058594 -15.921875 C 13.019531 -16.988281 12.980469 -18.019531 12.980469 -19.089844 C 12.980469 -19.28125 12.941406 -19.507812 12.941406 -19.699219 C 12.90625 -20.464844 12.75 -21.226562 12.828125 -21.992188 C 12.941406 -23.097656 12.980469 -24.207031 12.941406 -25.3125 C 12.90625 -25.734375 12.941406 -26.191406 12.675781 -26.535156 C 12.5625 -26.648438 12.40625 -26.609375 12.253906 -26.609375 L 9.316406 -26.609375 C 8.246094 -26.609375 7.175781 -26.6875 6.109375 -26.6875 Z M 6.109375 -26.6875 "/></g></g></g><g fill="#ffffff" fill-opacity="1"><g transform="translate(250.71345, 86.669015)"><g><path d="M 5.191406 -27.871094 C 4.007812 -27.488281 3.015625 -26.992188 2.558594 -25.734375 C 2.40625 -25.273438 2.289062 -24.816406 2.40625 -24.394531 C 2.710938 -22.335938 4.160156 -21.53125 5.878906 -21.417969 C 6.492188 -21.417969 7.0625 -21.34375 7.636719 -21.378906 C 9.199219 -21.496094 10.539062 -22.027344 11.339844 -23.59375 C 11.683594 -24.28125 11.722656 -25.734375 11.070312 -26.457031 C 10.539062 -27.03125 9.925781 -27.527344 9.125 -27.832031 C 7.789062 -28.367188 6.492188 -28.289062 5.191406 -27.871094 Z M 11.261719 -20.121094 C 8.359375 -20.042969 5.230469 -20.195312 2.597656 -20.003906 C 2.328125 -19.738281 2.289062 -19.507812 2.289062 -19.28125 C 2.328125 -18.707031 2.328125 -17.867188 2.367188 -17.332031 C 2.519531 -15.769531 2.445312 -14.429688 2.445312 -12.90625 C 2.445312 -11.378906 2.289062 -9.851562 2.289062 -8.285156 C 2.328125 -6.222656 2.480469 -4.199219 2.445312 -2.136719 C 2.445312 -1.449219 2.367188 -0.800781 2.480469 -0.0390625 C 5.421875 0.0390625 8.359375 0.0390625 11.261719 -0.078125 C 11.605469 -0.421875 11.566406 -0.726562 11.53125 -1.03125 C 11.453125 -1.566406 11.414062 -2.0625 11.453125 -2.597656 C 11.453125 -4.46875 11.53125 -6.261719 11.53125 -8.09375 C 11.492188 -9.964844 11.492188 -11.835938 11.492188 -13.707031 C 11.492188 -15.347656 11.566406 -17.257812 11.566406 -18.898438 C 11.605469 -19.28125 11.566406 -19.699219 11.261719 -20.121094 Z M 11.261719 -20.121094 "/></g></g></g><g fill="#ffffff" fill-opacity="1"><g transform="translate(264.493845, 86.669015)"><g><path d="M 19.128906 -20.234375 C 15.539062 -20.578125 13.324219 -19.472656 10.84375 -17.105469 C 10.15625 -17.980469 9.851562 -19.128906 9.085938 -19.851562 C 9.125 -20.082031 3.703125 -19.929688 2.289062 -19.777344 C 2.597656 -13.171875 2.785156 -6.527344 2.710938 -0.113281 C 3.015625 0.152344 3.246094 0.113281 3.472656 0.078125 C 4.46875 0.0390625 5.460938 0.0390625 6.453125 -0.0390625 C 7.828125 -0.191406 9.199219 -0.078125 10.574219 -0.113281 C 11.300781 -0.113281 11.453125 -0.265625 11.53125 -0.992188 L 11.53125 -1.601562 C 11.492188 -2.214844 11.453125 -2.863281 11.492188 -3.472656 C 11.566406 -6.71875 11.414062 -9.582031 11.492188 -12.828125 C 11.644531 -13.09375 11.910156 -13.25 12.140625 -13.476562 C 13.667969 -14.773438 15.003906 -14.851562 16.722656 -14.699219 C 17.410156 -14.621094 18.097656 -14.394531 18.667969 -13.972656 C 18.859375 -13.820312 19.050781 -13.78125 19.28125 -13.972656 C 19.507812 -14.585938 19.355469 -15.273438 19.355469 -15.957031 C 19.394531 -16.609375 19.394531 -17.449219 19.355469 -18.097656 C 19.320312 -18.785156 19.394531 -19.394531 19.128906 -20.234375 Z M 19.128906 -20.234375 "/></g></g></g><g fill="#ffffff" fill-opacity="1"><g transform="translate(285.374381, 86.669015)"><g><path d="M 5.191406 -27.871094 C 4.007812 -27.488281 3.015625 -26.992188 2.558594 -25.734375 C 2.40625 -25.273438 2.289062 -24.816406 2.40625 -24.394531 C 2.710938 -22.335938 4.160156 -21.53125 5.878906 -21.417969 C 6.492188 -21.417969 7.0625 -21.34375 7.636719 -21.378906 C 9.199219 -21.496094 10.539062 -22.027344 11.339844 -23.59375 C 11.683594 -24.28125 11.722656 -25.734375 11.070312 -26.457031 C 10.539062 -27.03125 9.925781 -27.527344 9.125 -27.832031 C 7.789062 -28.367188 6.492188 -28.289062 5.191406 -27.871094 Z M 11.261719 -20.121094 C 8.359375 -20.042969 5.230469 -20.195312 2.597656 -20.003906 C 2.328125 -19.738281 2.289062 -19.507812 2.289062 -19.28125 C 2.328125 -18.707031 2.328125 -17.867188 2.367188 -17.332031 C 2.519531 -15.769531 2.445312 -14.429688 2.445312 -12.90625 C 2.445312 -11.378906 2.289062 -9.851562 2.289062 -8.285156 C 2.328125 -6.222656 2.480469 -4.199219 2.445312 -2.136719 C 2.445312 -1.449219 2.367188 -0.800781 2.480469 -0.0390625 C 5.421875 0.0390625 8.359375 0.0390625 11.261719 -0.078125 C 11.605469 -0.421875 11.566406 -0.726562 11.53125 -1.03125 C 11.453125 -1.566406 11.414062 -2.0625 11.453125 -2.597656 C 11.453125 -4.46875 11.53125 -6.261719 11.53125 -8.09375 C 11.492188 -9.964844 11.492188 -11.835938 11.492188 -13.707031 C 11.492188 -15.347656 11.566406 -17.257812 11.566406 -18.898438 C 11.605469 -19.28125 11.566406 -19.699219 11.261719 -20.121094 Z M 11.261719 -20.121094 "/></g></g></g><g fill="#ffffff" fill-opacity="1"><g transform="translate(299.154777, 86.669015)"><g><path d="M 21.113281 -20.234375 C 18.554688 -20.84375 16.1875 -20.273438 13.820312 -19.394531 C 12.714844 -18.976562 11.757812 -18.363281 10.765625 -17.675781 C 10.078125 -18.25 9.734375 -19.28125 9.238281 -19.929688 C 6.300781 -20.273438 4.621094 -19.96875 2.328125 -19.929688 C 2.253906 -13.324219 2.289062 -6.566406 2.519531 0 L 10.347656 0 C 10.84375 0 11.339844 0.0390625 11.757812 -0.34375 C 11.796875 -1.984375 11.644531 -3.550781 11.605469 -5.152344 C 11.53125 -7.636719 11.566406 -10.078125 11.566406 -12.5625 C 11.566406 -13.132812 11.683594 -13.707031 11.835938 -14.203125 C 12.714844 -14.851562 13.476562 -15.578125 14.46875 -15.957031 C 16.035156 -16.53125 17.714844 -15.539062 17.484375 -13.78125 C 17.484375 -12.597656 17.449219 -11.605469 17.523438 -10.5 C 17.636719 -8.933594 17.601562 -7.332031 17.601562 -5.726562 C 17.601562 -4.277344 17.636719 -2.785156 17.636719 -1.296875 C 17.636719 -0.953125 17.5625 -0.535156 17.753906 -0.152344 C 18.097656 0.191406 18.441406 0.191406 18.859375 0.191406 C 19.816406 0.113281 20.617188 0.078125 21.570312 0.078125 C 23.210938 0.0390625 24.855469 0.0390625 26.496094 0 C 26.6875 0 26.839844 0 26.992188 -0.191406 C 26.917969 -3.128906 26.917969 -6.109375 26.800781 -9.085938 C 26.726562 -10.882812 26.839844 -12.675781 26.726562 -14.46875 C 26.574219 -16.953125 25.199219 -18.554688 23.136719 -19.699219 C 22.488281 -20.042969 21.800781 -20.082031 21.113281 -20.234375 Z M 21.113281 -20.234375 "/></g></g></g><g fill="#ffffff" fill-opacity="1"><g transform="translate(328.509685, 86.669015)"><g><path d="M 11.261719 -20.617188 C 10.539062 -20.617188 9.8125 -20.425781 9.125 -20.234375 C 6.757812 -19.585938 5.269531 -18.707031 4.007812 -16.796875 C 3.246094 -15.730469 2.75 -14.738281 2.328125 -13.515625 C 1.71875 -11.796875 1.601562 -10.042969 1.832031 -8.246094 C 1.984375 -6.910156 2.214844 -5.535156 2.75 -4.199219 C 3.09375 -3.4375 4.085938 -1.601562 4.773438 -1.335938 C 5.535156 -0.574219 6.414062 -0.191406 7.484375 0.0390625 C 8.742188 0.34375 10.042969 0.535156 11.378906 0.496094 C 13.285156 0.496094 15.308594 0.113281 16.953125 -0.953125 C 17.5625 -1.335938 17.945312 -1.414062 18.632812 -1.910156 C 18.632812 -1.296875 18.667969 -0.839844 18.632812 -0.34375 C 18.402344 2.023438 17.257812 3.015625 14.851562 3.589844 C 13.667969 3.855469 12.253906 3.855469 11.109375 3.742188 C 9.429688 3.511719 8.207031 3.320312 6.71875 2.519531 C 6.148438 2.214844 5.6875 1.792969 5.078125 1.640625 C 4.695312 1.71875 4.542969 1.984375 4.351562 2.214844 C 3.933594 2.75 3.246094 3.703125 2.902344 4.277344 C 2.519531 4.886719 2.75 5.117188 3.511719 5.726562 C 4.429688 6.335938 5 6.566406 6.109375 7.023438 C 9.542969 8.4375 13.746094 8.207031 17.371094 7.902344 C 23.480469 7.140625 25.886719 5.191406 26.800781 3.246094 C 27.871094 1.335938 27.945312 0 28.023438 -2.101562 C 28.023438 -3.054688 27.984375 -4.007812 27.984375 -4.964844 C 27.910156 -6.679688 28.214844 -8.359375 28.101562 -10.042969 C 27.910156 -12.90625 28.136719 -15.804688 28.175781 -18.667969 C 28.175781 -19.777344 27.984375 -20.042969 26.878906 -20.082031 C 25.65625 -20.121094 24.433594 -19.96875 23.25 -19.890625 C 22.640625 -19.851562 22.066406 -20.003906 21.457031 -19.851562 C 20.808594 -19.242188 20.121094 -18.59375 19.433594 -18.019531 C 19.050781 -18.136719 18.785156 -18.402344 18.515625 -18.59375 C 17.449219 -19.507812 16.148438 -20.042969 14.851562 -20.347656 C 13.707031 -20.617188 12.484375 -20.578125 11.261719 -20.617188 Z M 14.546875 -15.804688 C 15.804688 -16.265625 17.027344 -16.113281 18.019531 -15.117188 C 18.441406 -14.699219 18.707031 -14.277344 18.632812 -13.628906 C 18.59375 -13.210938 18.59375 -12.75 18.59375 -12.332031 L 18.515625 -8.515625 C 18.515625 -7.863281 18.59375 -7.214844 18.59375 -6.566406 C 18.59375 -5.992188 18.441406 -5.535156 17.945312 -5.152344 C 17.332031 -4.65625 16.796875 -4.125 15.996094 -3.894531 C 14.890625 -3.628906 14.050781 -4.007812 13.363281 -4.808594 C 12.636719 -5.613281 12.292969 -6.566406 12.066406 -7.558594 C 11.644531 -9.199219 11.453125 -10.539062 11.835938 -12.21875 C 12.21875 -13.78125 12.90625 -15.195312 14.546875 -15.804688 Z M 14.546875 -15.804688 "/></g></g></g><g fill="#ffffff" fill-opacity="1"><g transform="translate(359.047962, 86.669015)"><g><path d="M 6.988281 -26.953125 C 6.148438 -26.839844 5.230469 -26.800781 4.542969 -26.34375 C 3.285156 -25.503906 2.367188 -24.359375 2.175781 -22.832031 C 2.0625 -21.992188 2.0625 -21.152344 2.253906 -20.347656 C 2.632812 -18.9375 2.976562 -17.523438 3.511719 -16.148438 C 4.238281 -14.203125 5.078125 -12.253906 5.613281 -10.195312 C 5.726562 -9.8125 5.839844 -9.429688 6.261719 -9.164062 C 7.0625 -9.238281 7.902344 -9.011719 8.78125 -9.316406 L 9.046875 -10.042969 C 9.660156 -12.5625 10.5 -15.003906 11.300781 -17.484375 C 11.835938 -19.242188 12.332031 -21 12.332031 -22.871094 C 12.371094 -23.824219 11.949219 -24.585938 11.378906 -25.273438 C 10.230469 -26.535156 8.742188 -27.144531 6.988281 -26.953125 Z M 7.40625 -7.367188 C 5.917969 -7.484375 4.695312 -7.0625 3.664062 -6.03125 C 2.253906 -4.621094 2.328125 -2.214844 3.816406 -0.839844 C 4.847656 0.113281 6.109375 0.230469 7.40625 0.34375 C 8.324219 0.382812 9.125 0.078125 9.925781 -0.34375 C 11.910156 -1.449219 12.371094 -4.390625 10.726562 -5.992188 C 9.8125 -6.871094 8.703125 -7.253906 7.40625 -7.367188 Z M 7.40625 -7.367188 "/></g></g></g><g fill="#ffffff" fill-opacity="1"><g transform="translate(173.279291, 118.251564)"><g><path d="M 7.265625 -2.703125 C 7.160156 -1.804688 6.828125 -1.109375 6.265625 -0.609375 C 5.703125 -0.117188 4.957031 0.125 4.03125 0.125 C 3.019531 0.125 2.210938 -0.234375 1.609375 -0.953125 C 1.003906 -1.679688 0.703125 -2.65625 0.703125 -3.875 L 0.703125 -4.6875 C 0.703125 -5.476562 0.84375 -6.175781 1.125 -6.78125 C 1.40625 -7.382812 1.804688 -7.847656 2.328125 -8.171875 C 2.847656 -8.492188 3.445312 -8.65625 4.125 -8.65625 C 5.03125 -8.65625 5.753906 -8.398438 6.296875 -7.890625 C 6.847656 -7.378906 7.171875 -6.679688 7.265625 -5.796875 L 6.140625 -5.796875 C 6.035156 -6.472656 5.820312 -6.960938 5.5 -7.265625 C 5.175781 -7.566406 4.71875 -7.71875 4.125 -7.71875 C 3.40625 -7.71875 2.84375 -7.453125 2.4375 -6.921875 C 2.03125 -6.390625 1.828125 -5.632812 1.828125 -4.65625 L 1.828125 -3.828125 C 1.828125 -2.898438 2.019531 -2.160156 2.40625 -1.609375 C 2.789062 -1.066406 3.332031 -0.796875 4.03125 -0.796875 C 4.65625 -0.796875 5.132812 -0.9375 5.46875 -1.21875 C 5.800781 -1.507812 6.023438 -2.003906 6.140625 -2.703125 Z M 7.265625 -2.703125 "/></g></g><g transform="translate(181.089837, 118.251564)"><g><path d="M 2 0 L 0.921875 0 L 0.921875 -9 L 2 -9 Z M 2 0 "/></g></g><g transform="translate(184.001947, 118.251564)"><g><path d="M 2 0 L 0.921875 0 L 0.921875 -6.34375 L 2 -6.34375 Z M 0.828125 -8.015625 C 0.828125 -8.191406 0.878906 -8.34375 0.984375 -8.46875 C 1.097656 -8.59375 1.257812 -8.65625 1.46875 -8.65625 C 1.675781 -8.65625 1.832031 -8.59375 1.9375 -8.46875 C 2.050781 -8.34375 2.109375 -8.191406 2.109375 -8.015625 C 2.109375 -7.847656 2.050781 -7.703125 1.9375 -7.578125 C 1.832031 -7.460938 1.675781 -7.40625 1.46875 -7.40625 C 1.257812 -7.40625 1.097656 -7.460938 0.984375 -7.578125 C 0.878906 -7.703125 0.828125 -7.847656 0.828125 -8.015625 Z M 0.828125 -8.015625 "/></g></g><g transform="translate(186.914056, 118.251564)"><g><path d="M 3.359375 -0.765625 C 3.742188 -0.765625 4.082031 -0.878906 4.375 -1.109375 C 4.664062 -1.347656 4.828125 -1.644531 4.859375 -2 L 5.890625 -2 C 5.867188 -1.632812 5.738281 -1.285156 5.5 -0.953125 C 5.269531 -0.628906 4.960938 -0.367188 4.578125 -0.171875 C 4.203125 0.0234375 3.796875 0.125 3.359375 0.125 C 2.492188 0.125 1.804688 -0.160156 1.296875 -0.734375 C 0.796875 -1.316406 0.546875 -2.109375 0.546875 -3.109375 L 0.546875 -3.296875 C 0.546875 -3.910156 0.65625 -4.457031 0.875 -4.9375 C 1.101562 -5.414062 1.425781 -5.785156 1.84375 -6.046875 C 2.269531 -6.316406 2.773438 -6.453125 3.359375 -6.453125 C 4.066406 -6.453125 4.65625 -6.238281 5.125 -5.8125 C 5.601562 -5.394531 5.859375 -4.84375 5.890625 -4.15625 L 4.859375 -4.15625 C 4.828125 -4.570312 4.671875 -4.910156 4.390625 -5.171875 C 4.109375 -5.429688 3.765625 -5.5625 3.359375 -5.5625 C 2.804688 -5.5625 2.378906 -5.363281 2.078125 -4.96875 C 1.773438 -4.570312 1.625 -4 1.625 -3.25 L 1.625 -3.046875 C 1.625 -2.316406 1.773438 -1.753906 2.078125 -1.359375 C 2.378906 -0.960938 2.804688 -0.765625 3.359375 -0.765625 Z M 3.359375 -0.765625 "/></g></g><g transform="translate(193.195305, 118.251564)"><g><path d="M 2.59375 -2.9375 L 1.90625 -2.234375 L 1.90625 0 L 0.828125 0 L 0.828125 -9 L 1.90625 -9 L 1.90625 -3.5625 L 2.484375 -4.25 L 4.46875 -6.34375 L 5.78125 -6.34375 L 3.3125 -3.6875 L 6.078125 0 L 4.796875 0 Z M 2.59375 -2.9375 "/></g></g><g transform="translate(199.277336, 118.251564)"><g/></g><g transform="translate(202.248039, 118.251564)"><g><path d="M 2.296875 -7.875 L 2.296875 -6.34375 L 3.46875 -6.34375 L 3.46875 -5.5 L 2.296875 -5.5 L 2.296875 -1.578125 C 2.296875 -1.316406 2.347656 -1.125 2.453125 -1 C 2.554688 -0.875 2.734375 -0.8125 2.984375 -0.8125 C 3.109375 -0.8125 3.28125 -0.832031 3.5 -0.875 L 3.5 0 C 3.21875 0.0820312 2.941406 0.125 2.671875 0.125 C 2.191406 0.125 1.828125 -0.0195312 1.578125 -0.3125 C 1.328125 -0.613281 1.203125 -1.035156 1.203125 -1.578125 L 1.203125 -5.5 L 0.046875 -5.5 L 0.046875 -6.34375 L 1.203125 -6.34375 L 1.203125 -7.875 Z M 2.296875 -7.875 "/></g></g><g transform="translate(206.167961, 118.251564)"><g><path d="M 0.53125 -3.234375 C 0.53125 -3.847656 0.648438 -4.40625 0.890625 -4.90625 C 1.140625 -5.40625 1.484375 -5.785156 1.921875 -6.046875 C 2.359375 -6.316406 2.851562 -6.453125 3.40625 -6.453125 C 4.269531 -6.453125 4.96875 -6.15625 5.5 -5.5625 C 6.039062 -4.96875 6.3125 -4.171875 6.3125 -3.171875 L 6.3125 -3.09375 C 6.3125 -2.476562 6.191406 -1.925781 5.953125 -1.4375 C 5.710938 -0.945312 5.375 -0.5625 4.9375 -0.28125 C 4.5 -0.0078125 3.992188 0.125 3.421875 0.125 C 2.566406 0.125 1.867188 -0.171875 1.328125 -0.765625 C 0.796875 -1.367188 0.53125 -2.164062 0.53125 -3.15625 Z M 1.625 -3.09375 C 1.625 -2.394531 1.785156 -1.832031 2.109375 -1.40625 C 2.441406 -0.976562 2.878906 -0.765625 3.421875 -0.765625 C 3.972656 -0.765625 4.410156 -0.976562 4.734375 -1.40625 C 5.054688 -1.84375 5.21875 -2.453125 5.21875 -3.234375 C 5.21875 -3.921875 5.050781 -4.476562 4.71875 -4.90625 C 4.394531 -5.34375 3.957031 -5.5625 3.40625 -5.5625 C 2.875 -5.5625 2.441406 -5.347656 2.109375 -4.921875 C 1.785156 -4.503906 1.625 -3.894531 1.625 -3.09375 Z M 1.625 -3.09375 "/></g></g><g transform="translate(213.01171, 118.251564)"><g/></g><g transform="translate(215.982413, 118.251564)"><g><path d="M 2.125 -0.921875 L 6.171875 -0.921875 L 6.171875 0 L 0.984375 0 L 0.984375 -8.53125 L 2.125 -8.53125 Z M 2.125 -0.921875 "/></g></g><g transform="translate(222.439444, 118.251564)"><g><path d="M 3.453125 0.125 C 2.585938 0.125 1.882812 -0.15625 1.34375 -0.71875 C 0.8125 -1.289062 0.546875 -2.050781 0.546875 -3 L 0.546875 -3.1875 C 0.546875 -3.820312 0.664062 -4.382812 0.90625 -4.875 C 1.144531 -5.375 1.476562 -5.757812 1.90625 -6.03125 C 2.34375 -6.3125 2.8125 -6.453125 3.3125 -6.453125 C 4.132812 -6.453125 4.773438 -6.179688 5.234375 -5.640625 C 5.691406 -5.097656 5.921875 -4.320312 5.921875 -3.3125 L 5.921875 -2.859375 L 1.625 -2.859375 C 1.644531 -2.234375 1.828125 -1.726562 2.171875 -1.34375 C 2.523438 -0.957031 2.972656 -0.765625 3.515625 -0.765625 C 3.890625 -0.765625 4.207031 -0.84375 4.46875 -1 C 4.738281 -1.15625 4.976562 -1.363281 5.1875 -1.625 L 5.84375 -1.109375 C 5.3125 -0.285156 4.515625 0.125 3.453125 0.125 Z M 3.3125 -5.5625 C 2.875 -5.5625 2.503906 -5.398438 2.203125 -5.078125 C 1.910156 -4.765625 1.734375 -4.320312 1.671875 -3.75 L 4.84375 -3.75 L 4.84375 -3.828125 C 4.8125 -4.378906 4.660156 -4.804688 4.390625 -5.109375 C 4.128906 -5.410156 3.769531 -5.5625 3.3125 -5.5625 Z M 3.3125 -5.5625 "/></g></g><g transform="translate(228.796866, 118.251564)"><g><path d="M 4.734375 0 C 4.671875 -0.125 4.617188 -0.347656 4.578125 -0.671875 C 4.078125 -0.140625 3.476562 0.125 2.78125 0.125 C 2.15625 0.125 1.640625 -0.0507812 1.234375 -0.40625 C 0.835938 -0.757812 0.640625 -1.210938 0.640625 -1.765625 C 0.640625 -2.421875 0.890625 -2.929688 1.390625 -3.296875 C 1.890625 -3.660156 2.597656 -3.84375 3.515625 -3.84375 L 4.5625 -3.84375 L 4.5625 -4.34375 C 4.5625 -4.71875 4.445312 -5.015625 4.21875 -5.234375 C 4 -5.460938 3.664062 -5.578125 3.21875 -5.578125 C 2.832031 -5.578125 2.507812 -5.476562 2.25 -5.28125 C 1.988281 -5.09375 1.859375 -4.859375 1.859375 -4.578125 L 0.765625 -4.578125 C 0.765625 -4.898438 0.875 -5.207031 1.09375 -5.5 C 1.320312 -5.789062 1.628906 -6.019531 2.015625 -6.1875 C 2.398438 -6.363281 2.820312 -6.453125 3.28125 -6.453125 C 4.019531 -6.453125 4.59375 -6.269531 5 -5.90625 C 5.414062 -5.539062 5.632812 -5.039062 5.65625 -4.40625 L 5.65625 -1.484375 C 5.65625 -0.898438 5.726562 -0.4375 5.875 -0.09375 L 5.875 0 Z M 2.9375 -0.828125 C 3.28125 -0.828125 3.601562 -0.914062 3.90625 -1.09375 C 4.207031 -1.269531 4.425781 -1.5 4.5625 -1.78125 L 4.5625 -3.078125 L 3.71875 -3.078125 C 2.382812 -3.078125 1.71875 -2.6875 1.71875 -1.90625 C 1.71875 -1.570312 1.832031 -1.304688 2.0625 -1.109375 C 2.289062 -0.921875 2.582031 -0.828125 2.9375 -0.828125 Z M 2.9375 -0.828125 "/></g></g><g transform="translate(235.324209, 118.251564)"><g><path d="M 3.890625 -5.375 C 3.722656 -5.394531 3.546875 -5.40625 3.359375 -5.40625 C 2.640625 -5.40625 2.15625 -5.101562 1.90625 -4.5 L 1.90625 0 L 0.828125 0 L 0.828125 -6.34375 L 1.875 -6.34375 L 1.890625 -5.609375 C 2.242188 -6.171875 2.75 -6.453125 3.40625 -6.453125 C 3.613281 -6.453125 3.773438 -6.425781 3.890625 -6.375 Z M 3.890625 -5.375 "/></g></g><g transform="translate(239.384756, 118.251564)"><g><path d="M 1.84375 -6.34375 L 1.875 -5.546875 C 2.363281 -6.148438 3 -6.453125 3.78125 -6.453125 C 5.125 -6.453125 5.800781 -5.695312 5.8125 -4.1875 L 5.8125 0 L 4.71875 0 L 4.71875 -4.203125 C 4.71875 -4.648438 4.613281 -4.984375 4.40625 -5.203125 C 4.207031 -5.421875 3.890625 -5.53125 3.453125 -5.53125 C 3.097656 -5.53125 2.785156 -5.4375 2.515625 -5.25 C 2.253906 -5.0625 2.050781 -4.816406 1.90625 -4.515625 L 1.90625 0 L 0.828125 0 L 0.828125 -6.34375 Z M 1.84375 -6.34375 "/></g></g><g transform="translate(246.005849, 118.251564)"><g/></g><g transform="translate(248.976552, 118.251564)"><g><path d="M 2.4375 -8.53125 L 5.234375 -1.578125 L 8.015625 -8.53125 L 9.484375 -8.53125 L 9.484375 0 L 8.359375 0 L 8.359375 -3.328125 L 8.46875 -6.90625 L 5.65625 0 L 4.796875 0 L 2 -6.890625 L 2.109375 -3.328125 L 2.109375 0 L 0.984375 0 L 0.984375 -8.53125 Z M 2.4375 -8.53125 "/></g></g><g transform="translate(259.453114, 118.251564)"><g><path d="M 0.53125 -3.234375 C 0.53125 -3.847656 0.648438 -4.40625 0.890625 -4.90625 C 1.140625 -5.40625 1.484375 -5.785156 1.921875 -6.046875 C 2.359375 -6.316406 2.851562 -6.453125 3.40625 -6.453125 C 4.269531 -6.453125 4.96875 -6.15625 5.5 -5.5625 C 6.039062 -4.96875 6.3125 -4.171875 6.3125 -3.171875 L 6.3125 -3.09375 C 6.3125 -2.476562 6.191406 -1.925781 5.953125 -1.4375 C 5.710938 -0.945312 5.375 -0.5625 4.9375 -0.28125 C 4.5 -0.0078125 3.992188 0.125 3.421875 0.125 C 2.566406 0.125 1.867188 -0.171875 1.328125 -0.765625 C 0.796875 -1.367188 0.53125 -2.164062 0.53125 -3.15625 Z M 1.625 -3.09375 C 1.625 -2.394531 1.785156 -1.832031 2.109375 -1.40625 C 2.441406 -0.976562 2.878906 -0.765625 3.421875 -0.765625 C 3.972656 -0.765625 4.410156 -0.976562 4.734375 -1.40625 C 5.054688 -1.84375 5.21875 -2.453125 5.21875 -3.234375 C 5.21875 -3.921875 5.050781 -4.476562 4.71875 -4.90625 C 4.394531 -5.34375 3.957031 -5.5625 3.40625 -5.5625 C 2.875 -5.5625 2.441406 -5.347656 2.109375 -4.921875 C 1.785156 -4.503906 1.625 -3.894531 1.625 -3.09375 Z M 1.625 -3.09375 "/></g></g><g transform="translate(266.296864, 118.251564)"><g><path d="M 3.890625 -5.375 C 3.722656 -5.394531 3.546875 -5.40625 3.359375 -5.40625 C 2.640625 -5.40625 2.15625 -5.101562 1.90625 -4.5 L 1.90625 0 L 0.828125 0 L 0.828125 -6.34375 L 1.875 -6.34375 L 1.890625 -5.609375 C 2.242188 -6.171875 2.75 -6.453125 3.40625 -6.453125 C 3.613281 -6.453125 3.773438 -6.425781 3.890625 -6.375 Z M 3.890625 -5.375 "/></g></g><g transform="translate(270.35741, 118.251564)"><g><path d="M 3.453125 0.125 C 2.585938 0.125 1.882812 -0.15625 1.34375 -0.71875 C 0.8125 -1.289062 0.546875 -2.050781 0.546875 -3 L 0.546875 -3.1875 C 0.546875 -3.820312 0.664062 -4.382812 0.90625 -4.875 C 1.144531 -5.375 1.476562 -5.757812 1.90625 -6.03125 C 2.34375 -6.3125 2.8125 -6.453125 3.3125 -6.453125 C 4.132812 -6.453125 4.773438 -6.179688 5.234375 -5.640625 C 5.691406 -5.097656 5.921875 -4.320312 5.921875 -3.3125 L 5.921875 -2.859375 L 1.625 -2.859375 C 1.644531 -2.234375 1.828125 -1.726562 2.171875 -1.34375 C 2.523438 -0.957031 2.972656 -0.765625 3.515625 -0.765625 C 3.890625 -0.765625 4.207031 -0.84375 4.46875 -1 C 4.738281 -1.15625 4.976562 -1.363281 5.1875 -1.625 L 5.84375 -1.109375 C 5.3125 -0.285156 4.515625 0.125 3.453125 0.125 Z M 3.3125 -5.5625 C 2.875 -5.5625 2.503906 -5.398438 2.203125 -5.078125 C 1.910156 -4.765625 1.734375 -4.320312 1.671875 -3.75 L 4.84375 -3.75 L 4.84375 -3.828125 C 4.8125 -4.378906 4.660156 -4.804688 4.390625 -5.109375 C 4.128906 -5.410156 3.769531 -5.5625 3.3125 -5.5625 Z M 3.3125 -5.5625 "/></g></g></g></svg>